<?xml version="1.0" encoding="UTF-8"?>
<svg id="Layer_2" data-name="Layer 2" xmlns="http://www.w3.org/2000/svg" viewBox="0 0 158.49 52.38">
  <defs>
    <style>
      .cls-1 {
        fill: #231f20;
      }

      .cls-1, .cls-2 {
        fill-rule: evenodd;
      }

      .cls-1, .cls-2, .cls-3 {
        stroke-width: 0px;
      }

      .cls-2, .cls-3 {
        fill: #7e8083;
      }
    </style>
  </defs>
  <g id="Layer_1-2" data-name="Layer 1">
    <g>
      <g>
        <path class="cls-2" d="m44.23,52.21v-10.26h3.87c.68,0,1.2.04,1.56.1.51.08.93.25,1.27.48.34.24.61.57.82.99.21.42.32.89.32,1.4,0,.87-.28,1.61-.83,2.22-.56.6-1.56.9-3.01.9h-2.63v4.17h-1.36Zm1.36-5.38h2.65c.88,0,1.5-.16,1.87-.49.37-.33.55-.79.55-1.38,0-.43-.11-.79-.33-1.1-.21-.31-.5-.51-.85-.61-.23-.06-.65-.09-1.27-.09h-2.62v3.67Z"/>
        <path class="cls-2" d="m55.17,48.5c0-1.38.38-2.4,1.15-3.06.64-.55,1.42-.83,2.34-.83,1.02,0,1.86.33,2.51,1.01.65.67.97,1.59.97,2.77,0,.96-.15,1.71-.44,2.26-.28.55-.7.97-1.25,1.27-.55.3-1.14.46-1.79.46-1.04,0-1.88-.34-2.53-1-.64-.67-.96-1.63-.96-2.88Zm1.29,0c0,.95.21,1.66.62,2.14.42.47.94.71,1.57.71s1.14-.24,1.56-.71c.41-.48.62-1.2.62-2.18,0-.92-.21-1.61-.63-2.09-.42-.48-.93-.71-1.55-.71s-1.15.24-1.57.71c-.41.47-.62,1.18-.62,2.13Z"/>
        <path class="cls-2" d="m65.14,48.5c0-1.38.38-2.4,1.15-3.06.64-.55,1.42-.83,2.34-.83,1.02,0,1.86.33,2.5,1.01.65.67.97,1.59.97,2.77,0,.96-.15,1.71-.43,2.26-.28.55-.7.97-1.25,1.27-.54.3-1.14.46-1.79.46-1.04,0-1.88-.34-2.53-1-.64-.67-.96-1.63-.96-2.88Zm1.29,0c0,.95.21,1.66.62,2.14.42.47.94.71,1.57.71s1.14-.24,1.56-.71c.41-.48.62-1.2.62-2.18,0-.92-.21-1.61-.63-2.09-.41-.48-.93-.71-1.55-.71s-1.15.24-1.57.71c-.41.47-.62,1.18-.62,2.13Z"/>
        <rect class="cls-3" x="75.56" y="41.95" width="1.26" height="10.26"/>
        <path class="cls-2" d="m86.87,52.21v-10.26h3.85c.78,0,1.41.11,1.88.32.47.21.85.53,1.11.96.27.43.4.88.41,1.35,0,.44-.12.85-.36,1.24-.24.39-.6.7-1.08.94.62.18,1.1.49,1.43.93.34.44.5.95.5,1.55,0,.48-.1.93-.31,1.34-.2.41-.45.73-.75.95-.3.22-.67.39-1.13.51-.45.11-1,.17-1.65.17h-3.91Zm1.36-5.95h2.22c.6,0,1.03-.04,1.29-.12.34-.11.6-.27.78-.51.17-.24.26-.54.26-.9,0-.34-.08-.64-.24-.89-.16-.26-.4-.44-.7-.53-.3-.1-.82-.15-1.56-.15h-2.05v3.1Zm0,4.74h2.55c.44,0,.74-.02.92-.05.31-.06.58-.15.79-.28.21-.13.38-.32.52-.57.13-.25.2-.54.2-.87,0-.38-.1-.71-.29-1-.2-.28-.47-.48-.82-.59-.34-.12-.84-.17-1.5-.17h-2.37v3.53Z"/>
        <path class="cls-2" d="m103.17,51.29c-.47.4-.92.68-1.35.84-.43.16-.89.24-1.38.24-.82,0-1.44-.2-1.88-.6-.44-.4-.66-.91-.66-1.53,0-.36.08-.69.24-.99.17-.3.39-.54.65-.73.27-.18.57-.32.91-.41.25-.06.62-.12,1.12-.19,1.02-.12,1.76-.27,2.25-.44,0-.17,0-.28,0-.33,0-.51-.12-.87-.35-1.08-.32-.28-.8-.43-1.44-.43-.59,0-1.03.1-1.32.32-.28.2-.49.57-.62,1.1l-1.23-.17c.11-.53.3-.95.55-1.27.26-.33.63-.58,1.11-.75.49-.18,1.05-.27,1.69-.27s1.15.07,1.55.23c.39.15.69.34.87.57.19.23.32.51.39.85.04.21.06.6.06,1.16v1.68c0,1.17.02,1.92.08,2.22.05.31.16.6.32.89h-1.31c-.13-.26-.21-.57-.25-.92Zm-.1-2.81c-.46.19-1.14.35-2.06.48-.52.07-.88.16-1.1.25-.21.09-.38.23-.5.41-.12.18-.18.38-.18.6,0,.33.13.62.38.84.26.23.63.33,1.12.33s.92-.1,1.29-.31c.38-.21.65-.5.83-.87.13-.28.2-.7.2-1.26v-.46Z"/>
        <path class="cls-2" d="m108.29,52.21v-7.43h1.13v1.13c.29-.53.56-.88.8-1.04.25-.17.52-.25.81-.25.43,0,.86.14,1.29.41l-.43,1.17c-.31-.18-.62-.27-.92-.27-.28,0-.52.08-.74.25-.22.16-.38.39-.47.69-.14.45-.21.94-.21,1.47v3.89h-1.26Z"/>
      </g>
      <g>
        <path class="cls-1" d="m0,33.28V.58h14.5c2.91,0,5.13.3,6.65.9,1.52.58,2.73,1.61,3.64,3.1.91,1.48,1.36,3.13,1.36,4.93,0,2.32-.75,4.28-2.25,5.87-1.5,1.59-3.82,2.6-6.96,3.03,1.14.55,2.01,1.09,2.61,1.63,1.26,1.16,2.46,2.61,3.59,4.35l5.69,8.9h-5.44l-4.33-6.8c-1.26-1.96-2.3-3.47-3.12-4.51-.82-1.04-1.55-1.77-2.21-2.19-.64-.41-1.29-.71-1.96-.87-.49-.1-1.29-.15-2.41-.15h-5.02v14.52H0ZM4.33,15.01h9.3c1.98,0,3.52-.2,4.64-.6,1.11-.42,1.96-1.07,2.54-1.97.58-.9.87-1.89.87-2.94,0-1.55-.57-2.82-1.7-3.82-1.11-.99-2.88-1.49-5.31-1.49H4.33v10.82Z"/>
        <path class="cls-1" d="m31.6,17.35c0-5.43,1.46-9.67,4.37-12.74,2.91-3.08,6.68-4.62,11.29-4.62,3.02,0,5.74.72,8.16,2.16,2.42,1.44,4.27,3.46,5.53,6.04,1.28,2.58,1.92,5.49,1.92,8.77,0,3.32-.67,6.28-2.01,8.9-1.34,2.62-3.23,4.6-5.69,5.96-2.45,1.34-5.1,2.01-7.94,2.01-3.08,0-5.83-.74-8.25-2.23-2.42-1.49-4.26-3.52-5.51-6.09-1.25-2.57-1.87-5.29-1.87-8.16Zm4.46.06c0,3.94,1.05,7.05,3.17,9.32,2.13,2.26,4.79,3.39,7.99,3.39s5.93-1.15,8.03-3.44c2.11-2.29,3.16-5.54,3.17-9.75,0-2.66-.45-4.98-1.36-6.96-.89-1.99-2.21-3.53-3.95-4.62-1.72-1.1-3.66-1.65-5.82-1.66-3.07,0-5.7,1.06-7.92,3.17-2.2,2.09-3.3,5.61-3.3,10.53Z"/>
        <path class="cls-1" d="m91.78,21.81l4.33,1.09c-.91,3.55-2.54,6.27-4.91,8.14-2.35,1.86-5.23,2.79-8.63,2.79-3.52,0-6.39-.71-8.61-2.14-2.2-1.44-3.88-3.52-5.04-6.24-1.14-2.72-1.72-5.64-1.72-8.76,0-3.41.65-6.37,1.94-8.9,1.31-2.54,3.16-4.47,5.55-5.78,2.41-1.32,5.06-1.98,7.94-1.98,3.27,0,6.02.83,8.25,2.5,2.23,1.67,3.78,4.01,4.66,7.03l-4.26,1c-.76-2.38-1.86-4.11-3.3-5.2-1.44-1.08-3.26-1.62-5.44-1.63-2.51,0-4.62.6-6.31,1.81-1.68,1.21-2.86,2.83-3.55,4.86-.68,2.02-1.02,4.11-1.02,6.27,0,2.78.4,5.21,1.2,7.29.82,2.07,2.08,3.61,3.79,4.64,1.71,1.02,3.56,1.54,5.55,1.54,2.42,0,4.47-.7,6.16-2.1,1.68-1.4,2.82-3.47,3.41-6.22Z"/>
        <polygon class="cls-1" points="101.26 33.28 101.26 .58 105.59 .58 105.59 16.79 121.82 .58 127.69 .58 113.97 13.83 128.29 33.28 122.58 33.28 110.94 16.73 105.59 21.94 105.59 33.28 101.26 33.28"/>
        <path class="cls-1" d="m141.11,33.28v-13.85L128.51.58h5.26l6.45,9.86c1.19,1.85,2.3,3.69,3.32,5.53.98-1.71,2.17-3.64,3.57-5.78l6.33-9.61h5.04l-13.05,18.85v13.85h-4.33Z"/>
      </g>
    </g>
  </g>
</svg>